<svg version="1.1" id="Layer_1" xmlns="http://www.w3.org/2000/svg" xmlns:xlink="http://www.w3.org/1999/xlink" x="0px" y="0px"
	 width="100%" viewBox="0 0 500 500" enable-background="new 0 0 500 500" xml:space="preserve">
<path fill="#000000" opacity="1.000000" stroke="none" 
	d="
M349.000000,501.000000 
	C232.666687,501.000000 116.833389,501.000000 1.000062,501.000000 
	C1.000041,334.333405 1.000041,167.666809 1.000021,1.000152 
	C167.666550,1.000101 334.333099,1.000101 500.999756,1.000051 
	C500.999817,167.666519 500.999817,334.333038 500.999908,500.999786 
	C450.500000,501.000000 400.000000,501.000000 349.000000,501.000000 
M211.079758,414.356049 
	C221.997589,416.228668 232.861969,418.578217 243.851639,419.809875 
	C251.453888,420.661896 259.266205,420.446381 266.917511,419.848541 
	C276.364624,419.110413 285.877075,418.104523 295.120728,416.103333 
	C312.678162,412.302246 329.251099,405.656036 344.744019,396.476410 
	C363.093292,385.604370 379.193542,372.025208 392.624939,355.470551 
	C403.726593,341.787445 412.540527,326.688721 419.212708,310.315796 
	C425.373077,295.198792 429.336395,279.520599 430.754364,263.350464 
	C431.643005,253.216507 431.808838,242.848572 430.723572,232.755005 
	C429.346619,219.948990 427.332581,207.048660 423.899292,194.658386 
	C415.082153,162.838699 397.193054,136.476242 372.761444,114.465317 
	C361.866241,104.649628 349.969421,96.261078 336.906067,89.517906 
	C315.983246,78.717804 293.706757,72.161583 270.370392,70.351944 
	C251.748840,68.907921 233.129456,70.491226 214.803909,75.045776 
	C176.450256,84.578041 144.590439,104.531357 119.847321,135.103333 
	C99.871590,159.784866 87.515305,188.066757 82.807014,219.813263 
	C80.169853,237.594894 80.904472,255.158859 83.325226,272.625732 
	C86.078682,292.493286 92.756325,311.253021 102.509285,328.965790 
	C113.911728,349.674225 128.696671,367.511963 147.066315,382.149139 
	C165.844299,397.111694 186.840179,408.161530 211.079758,414.356049 
z"/>
<path fill="#8C52FD" opacity="1.000000" stroke="none" 
	d="
M210.707428,414.177063 
	C186.840179,408.161530 165.844299,397.111694 147.066315,382.149139 
	C128.696671,367.511963 113.911728,349.674225 102.509285,328.965790 
	C92.756325,311.253021 86.078682,292.493286 83.325226,272.625732 
	C80.904472,255.158859 80.169853,237.594894 82.807014,219.813263 
	C87.515305,188.066757 99.871590,159.784866 119.847321,135.103333 
	C144.590439,104.531357 176.450256,84.578041 214.803909,75.045776 
	C233.129456,70.491226 251.748840,68.907921 270.370392,70.351944 
	C293.706757,72.161583 315.983246,78.717804 336.906067,89.517906 
	C349.969421,96.261078 361.866241,104.649628 372.761444,114.465317 
	C397.193054,136.476242 415.082153,162.838699 423.899292,194.658386 
	C427.332581,207.048660 429.346619,219.948990 430.723572,232.755005 
	C431.808838,242.848572 431.643005,253.216507 430.754364,263.350464 
	C429.336395,279.520599 425.373077,295.198792 419.212708,310.315796 
	C412.540527,326.688721 403.726593,341.787445 392.624939,355.470551 
	C379.193542,372.025208 363.093292,385.604370 344.744019,396.476410 
	C329.251099,405.656036 312.678162,412.302246 295.120728,416.103333 
	C285.877075,418.104523 276.364624,419.110413 266.917511,419.848541 
	C259.266205,420.446381 251.453888,420.661896 243.851639,419.809875 
	C232.861969,418.578217 221.997589,416.228668 210.707428,414.177063 
M155.156982,295.858337 
	C155.156982,295.858337 155.155609,295.745575 155.405212,296.240204 
	C155.688705,296.469757 155.972214,296.699341 156.614090,297.105011 
	C156.837357,297.268860 156.988617,297.483429 157.323227,298.232086 
	C157.599655,298.465729 157.876083,298.699402 158.067383,298.926971 
	C158.067383,298.926971 158.076706,298.842133 158.341339,299.290161 
	C158.613190,299.501343 158.885025,299.712494 159.091248,299.894592 
	C159.091248,299.894592 159.132858,299.836121 159.224518,300.523865 
	C160.239212,301.262878 161.253891,302.001862 162.209854,302.787567 
	C162.209854,302.787567 162.171539,302.723053 162.427841,303.193237 
	C162.721939,303.387146 163.016052,303.581055 163.210037,303.775909 
	C163.210037,303.775909 163.219330,303.676239 163.467880,304.136078 
	C163.774124,304.287689 164.080383,304.439301 164.343185,304.529144 
	C164.343185,304.529144 164.418152,304.520050 164.549423,305.206970 
	C165.700562,305.808624 166.851700,306.410278 167.995605,307.006104 
	C167.995605,307.006104 167.985962,307.003052 168.299194,307.397278 
	C168.583939,307.571136 168.868668,307.744995 169.066864,307.912628 
	C169.066864,307.912628 169.076675,307.826416 169.393326,308.442719 
	C171.632065,309.589661 173.870789,310.736572 176.051926,311.929779 
	C176.051926,311.929779 176.042496,311.856506 176.433823,312.318268 
	C176.989258,312.515533 177.544693,312.712799 178.043152,312.949341 
	C178.043152,312.949341 178.025177,312.882507 178.483582,313.404297 
	C184.681198,318.359131 192.386887,318.794739 199.656952,319.592407 
	C208.456268,320.557892 217.520920,320.983521 225.854080,316.719177 
	C225.854080,316.719177 225.784073,316.688507 226.572571,316.835785 
	C229.064438,315.845612 231.556305,314.855438 234.202148,313.698578 
	C234.202148,313.698578 234.429047,313.695312 235.219757,313.792542 
	C236.847427,312.869873 238.475098,311.947205 240.303650,310.857941 
	C240.303650,310.857941 240.562866,310.827911 241.325958,310.867523 
	C242.375854,310.069305 243.425751,309.271057 244.519547,308.420013 
	C244.519547,308.420013 244.583878,308.444122 245.203369,308.448059 
	C245.779861,307.914093 246.356339,307.380096 246.937927,306.919800 
	C246.937927,306.919800 246.870300,306.890167 247.473602,306.799774 
	C247.889572,306.389954 248.305542,305.980103 248.758224,305.666779 
	C248.758224,305.666779 248.658051,305.691650 249.165924,305.532318 
	C249.407990,305.280457 249.650055,305.028625 249.900360,304.883362 
	C249.900360,304.883362 249.793518,304.886505 250.275467,304.645599 
	C250.501404,304.371765 250.727341,304.097931 251.168213,303.442413 
	C251.366714,303.215240 251.611526,303.062134 252.488113,302.842377 
	C252.854416,302.400055 253.220718,301.957703 253.935989,301.600922 
	C253.935989,301.600922 253.581329,301.546539 254.081879,301.419434 
	C254.278549,301.148315 254.475220,300.877197 254.717804,300.684814 
	C254.717804,300.684814 254.626923,300.677643 255.120209,300.488159 
	C255.319824,300.206512 255.519440,299.924896 255.651794,299.693756 
	C255.651794,299.693756 255.675171,299.612976 256.377991,299.813232 
	C256.942291,301.311188 257.982483,302.804718 257.996429,304.307800 
	C258.119476,317.566467 257.859528,330.831909 258.196228,344.083069 
	C258.280029,347.381134 260.117035,350.634644 261.054535,353.978210 
	C261.054535,353.978210 261.118591,353.880707 261.103943,354.573303 
	C261.807159,355.326324 262.510345,356.079346 263.122681,356.881836 
	C263.122681,356.881836 263.166931,356.788300 263.331665,357.450867 
	C264.055206,357.897095 264.778717,358.343323 265.747711,358.829712 
	C265.747711,358.829712 265.923798,359.005432 266.365234,359.601471 
	C272.486023,363.700073 279.899200,362.930817 284.122650,357.408691 
	C284.290222,357.178589 284.510071,357.021698 285.254364,356.675720 
	C285.479523,356.397614 285.704651,356.119537 285.926056,355.944946 
	C285.926056,355.944946 285.822693,355.938141 286.301453,355.572510 
	C286.519897,355.028107 286.738342,354.483673 286.998535,353.985107 
	C286.998535,353.985107 286.936859,353.979034 287.549561,353.548920 
	C287.897797,352.157806 288.246033,350.766693 288.497620,349.341522 
	C288.497620,349.341522 288.519989,349.241516 289.119507,348.555725 
	C289.362000,339.017212 289.604492,329.478729 289.882019,319.011169 
	C289.898224,293.005432 289.914398,266.999695 289.990295,240.185669 
	C291.329102,239.134750 292.590363,237.323257 294.021423,237.177414 
	C298.098846,236.761871 302.251343,237.161469 306.363098,236.982544 
	C310.572327,236.799423 314.768341,236.311035 319.757294,235.864929 
	C325.267365,235.468033 330.431213,230.184921 330.871277,224.494339 
	C331.326141,218.612106 327.627991,212.959274 321.709991,211.980835 
	C316.506287,211.120483 311.118683,211.288818 305.808655,211.177750 
	C300.221649,211.060852 294.630310,211.151535 289.190521,211.151535 
	C286.841309,194.798874 291.501038,181.221436 302.031433,172.464401 
	C308.819519,166.819427 317.067535,165.871231 325.399261,165.021255 
	C333.493896,164.195450 338.287964,159.055435 338.086029,151.744797 
	C337.889832,144.643646 332.518066,139.258347 324.638336,139.098862 
	C305.141052,138.704269 288.128357,144.994522 275.477905,160.137070 
	C269.986298,166.710526 266.232941,174.736160 261.714752,182.062225 
	C245.410645,169.767670 228.403625,164.135559 205.753586,165.796875 
	C164.595627,168.815674 133.986893,204.317520 136.579987,245.629379 
	C137.354980,257.975891 140.306488,269.527222 145.084686,281.495636 
	C145.864868,282.557739 146.645050,283.619843 147.374603,284.740631 
	C147.374603,284.740631 147.321838,284.683868 147.447540,285.190704 
	C147.677490,285.444824 147.907440,285.698975 148.067001,285.945435 
	C148.067001,285.945435 148.097916,285.881714 148.180130,286.484589 
	C148.549942,286.946655 148.919769,287.408722 149.172150,287.871613 
	C149.172150,287.871613 149.178482,287.754333 149.344208,288.245819 
	C149.578171,288.494629 149.812134,288.743469 149.995010,288.995331 
	C149.995010,288.995331 150.028030,288.956177 150.049805,289.649689 
	C150.775558,290.408447 151.501297,291.167206 152.598480,292.156219 
	C152.821243,292.360809 152.962372,292.611389 153.154739,293.493347 
	C153.588440,293.870361 154.022125,294.247375 154.411362,294.855835 
	C154.411362,294.855835 154.412415,294.620178 154.541199,295.126221 
	C154.783951,295.367462 155.026703,295.608673 155.156982,295.858337 
z"/>
<path fill="#FEFCFE" opacity="1.000000" stroke="none" 
	d="
M157.067902,297.748749 
	C156.988617,297.483429 156.837357,297.268860 156.328033,296.755310 
	C155.746521,296.185608 155.451065,295.965576 155.155609,295.745575 
	C155.155609,295.745575 155.156982,295.858337 155.150009,295.598694 
	C154.899490,295.099426 154.655960,294.859802 154.412415,294.620178 
	C154.412415,294.620178 154.411362,294.855835 154.325592,294.473267 
	C153.833832,293.696442 153.427841,293.302185 153.021851,292.907928 
	C152.962372,292.611389 152.821243,292.360809 152.312408,291.742523 
	C151.360245,290.537933 150.694138,289.747070 150.028030,288.956177 
	C150.028030,288.956177 149.995010,288.995331 149.978287,288.726074 
	C149.700531,288.222656 149.439514,287.988495 149.178482,287.754333 
	C149.178482,287.754333 149.172150,287.871613 149.182251,287.569061 
	C148.827560,286.804901 148.462738,286.343323 148.097916,285.881714 
	C148.097916,285.881714 148.067001,285.945435 148.061127,285.683014 
	C147.810760,285.175018 147.566299,284.929443 147.321838,284.683868 
	C147.321838,284.683868 147.374603,284.740631 147.318695,284.390686 
	C146.541428,282.949005 145.820084,281.857300 145.098740,280.765564 
	C140.306488,269.527222 137.354980,257.975891 136.579987,245.629379 
	C133.986893,204.317520 164.595627,168.815674 205.753586,165.796875 
	C228.403625,164.135559 245.410645,169.767670 261.714752,182.062225 
	C266.232941,174.736160 269.986298,166.710526 275.477905,160.137070 
	C288.128357,144.994522 305.141052,138.704269 324.638336,139.098862 
	C332.518066,139.258347 337.889832,144.643646 338.086029,151.744797 
	C338.287964,159.055435 333.493896,164.195450 325.399261,165.021255 
	C317.067535,165.871231 308.819519,166.819427 302.031433,172.464401 
	C291.501038,181.221436 286.841309,194.798874 289.190521,211.151535 
	C294.630310,211.151535 300.221649,211.060852 305.808655,211.177750 
	C311.118683,211.288818 316.506287,211.120483 321.709991,211.980835 
	C327.627991,212.959274 331.326141,218.612106 330.871277,224.494339 
	C330.431213,230.184921 325.267365,235.468033 318.901428,235.859924 
	C308.456238,235.854919 298.866882,235.854919 289.155365,235.854919 
	C289.155365,237.997040 289.155365,239.474960 289.092102,241.420746 
	C289.014923,261.666473 289.022339,281.444397 288.974548,301.222168 
	C288.959351,307.513092 288.797211,313.803711 288.633026,320.552795 
	C288.549164,330.421295 288.534576,339.831390 288.519989,349.241516 
	C288.519989,349.241516 288.497620,349.341522 288.328247,349.638550 
	C287.751556,351.283386 287.344208,352.631195 286.936859,353.979034 
	C286.936859,353.979034 286.998535,353.985107 286.760437,354.161255 
	C286.289124,354.871002 286.055908,355.404572 285.822693,355.938141 
	C285.822693,355.938141 285.926056,355.944946 285.663513,355.987610 
	C285.194702,356.332855 284.988434,356.635437 284.782135,356.938019 
	C284.510071,357.021698 284.290222,357.178589 283.676636,357.715240 
	C277.647369,361.616852 271.862335,361.661682 265.923798,359.005432 
	C265.923798,359.005432 265.747711,358.829712 265.466370,358.535400 
	C264.512329,357.756805 263.839630,357.272552 263.166931,356.788300 
	C263.166931,356.788300 263.122681,356.881836 263.071228,356.563629 
	C262.386047,355.457184 261.752319,354.668945 261.118591,353.880707 
	C261.118591,353.880707 261.054535,353.978210 261.046906,353.527527 
	C260.631409,349.971710 259.898193,346.869324 259.871277,343.760864 
	C259.745941,329.303314 259.824005,314.844025 259.803772,300.385406 
	C259.801819,298.987122 259.623993,297.589142 259.451538,295.082184 
	C257.720947,297.158508 256.698059,298.385742 255.675171,299.612976 
	C255.675171,299.612976 255.651794,299.693756 255.438110,299.763245 
	C255.025253,300.114410 254.826096,300.396027 254.626923,300.677643 
	C254.626923,300.677643 254.717804,300.684814 254.456085,300.728241 
	C253.990036,301.029968 253.785675,301.288239 253.581329,301.546539 
	C253.581329,301.546539 253.935989,301.600922 253.493118,301.667145 
	C252.667725,302.149933 252.285187,302.566498 251.902649,302.983063 
	C251.611526,303.062134 251.366714,303.215240 250.803986,303.733307 
	C250.224335,304.311615 250.008926,304.599060 249.793518,304.886505 
	C249.793518,304.886505 249.900360,304.883362 249.630463,304.891724 
	C249.126373,305.163940 248.892197,305.427795 248.658051,305.691650 
	C248.658051,305.691650 248.758224,305.666779 248.449203,305.691101 
	C247.716888,306.106995 247.293594,306.498596 246.870300,306.890167 
	C246.870300,306.890167 246.937927,306.919800 246.643951,306.935181 
	C245.761276,307.448395 245.172577,307.946259 244.583878,308.444122 
	C244.583878,308.444122 244.519547,308.420013 244.194672,308.562134 
	C242.767487,309.412140 241.665176,310.120026 240.562866,310.827911 
	C240.562866,310.827911 240.303650,310.857941 239.848724,310.973328 
	C237.738876,311.957581 236.083969,312.826447 234.429047,313.695312 
	C234.429047,313.695312 234.202148,313.698578 233.743561,313.807068 
	C230.784668,314.839874 228.284363,315.764191 225.784073,316.688507 
	C225.784073,316.688507 225.854080,316.719177 225.428192,316.707184 
	C215.918549,317.138458 206.785980,318.346741 197.767136,317.771667 
	C191.109634,317.347137 184.600449,314.596649 178.025177,312.882507 
	C178.025177,312.882507 178.043152,312.949341 177.897186,312.678833 
	C177.181656,312.224365 176.612076,312.040436 176.042496,311.856506 
	C176.042496,311.856506 176.051926,311.929779 175.890106,311.631165 
	C173.511093,310.163849 171.293884,308.995117 169.076675,307.826416 
	C169.076675,307.826416 169.066864,307.912628 169.000443,307.671326 
	C168.617996,307.287720 168.301987,307.145386 167.985962,307.003052 
	C167.985962,307.003052 167.995605,307.006104 167.809799,306.753845 
	C166.555374,305.841064 165.486771,305.180542 164.418152,304.520050 
	C164.418152,304.520050 164.343185,304.529144 164.240082,304.330688 
	C163.831085,303.980225 163.525208,303.828247 163.219330,303.676239 
	C163.219330,303.676239 163.210037,303.775909 163.152298,303.522705 
	C162.786880,303.087341 162.479202,302.905212 162.171539,302.723053 
	C162.171539,302.723053 162.209854,302.787567 162.106903,302.480652 
	C161.046936,301.394501 160.089890,300.615326 159.132858,299.836121 
	C159.132858,299.836121 159.091248,299.894592 159.038757,299.647736 
	C158.683090,299.214630 158.379898,299.028381 158.076706,298.842133 
	C158.076706,298.842133 158.067383,298.926971 158.023132,298.658875 
	C157.675217,298.176758 157.371567,297.962769 157.067902,297.748749 
M236.930405,196.495056 
	C226.114349,190.549820 214.603775,188.990433 202.608521,191.479385 
	C179.389999,196.297089 164.245071,215.956528 163.723709,241.680588 
	C163.043671,275.235199 190.648956,299.423553 222.958481,292.736389 
	C250.940903,286.944794 264.575958,263.311371 258.755676,236.230576 
	C253.633286,235.859314 248.431885,235.921280 243.408829,235.005264 
	C237.357635,233.901749 233.862198,228.991699 234.057968,223.193878 
	C234.257111,217.295761 237.964462,212.860550 243.922318,211.684570 
	C246.454147,211.184830 249.063293,211.076874 251.637299,210.790863 
	C251.940643,210.305023 252.243988,209.819183 252.547333,209.333359 
	C247.555344,205.176361 242.563339,201.019363 236.930405,196.495056 
z"/>
<path fill="#9A72E8" opacity="1.000000" stroke="none" 
	d="
M256.026581,299.713104 
	C256.698059,298.385742 257.720947,297.158508 259.451538,295.082184 
	C259.623993,297.589142 259.801819,298.987122 259.803772,300.385406 
	C259.824005,314.844025 259.745941,329.303314 259.871277,343.760864 
	C259.898193,346.869324 260.631409,349.971710 261.093750,353.492737 
	C260.117035,350.634644 258.280029,347.381134 258.196228,344.083069 
	C257.859528,330.831909 258.119476,317.566467 257.996429,304.307800 
	C257.982483,302.804718 256.942291,301.311188 256.026581,299.713104 
z"/>
<path fill="#9A72E8" opacity="1.000000" stroke="none" 
	d="
M288.702332,320.094452 
	C288.797211,313.803711 288.959351,307.513092 288.974548,301.222168 
	C289.022339,281.444397 289.014923,261.666473 289.285889,241.432404 
	C289.542877,240.976227 289.930603,240.993958 289.930603,240.993958 
	C289.914398,266.999695 289.898224,293.005432 289.579590,319.517456 
	C289.085541,320.047333 288.893951,320.070892 288.702332,320.094452 
z"/>
<path fill="#9A72E8" opacity="1.000000" stroke="none" 
	d="
M178.254379,313.143402 
	C184.600449,314.596649 191.109634,317.347137 197.767136,317.771667 
	C206.785980,318.346741 215.918549,317.138458 225.437393,316.670105 
	C217.520920,320.983521 208.456268,320.557892 199.656952,319.592407 
	C192.386887,318.794739 184.681198,318.359131 178.254379,313.143402 
z"/>
<path fill="#835DD7" opacity="1.000000" stroke="none" 
	d="
M289.960449,240.589813 
	C289.930603,240.993958 289.542877,240.976227 289.349121,240.964554 
	C289.155365,239.474960 289.155365,237.997040 289.155365,235.854919 
	C298.866882,235.854919 308.456238,235.854919 318.507874,235.905594 
	C314.768341,236.311035 310.572327,236.799423 306.363098,236.982544 
	C302.251343,237.161469 298.098846,236.761871 294.021423,237.177414 
	C292.590363,237.323257 291.329102,239.134750 289.960449,240.589813 
z"/>
<path fill="#9368E9" opacity="1.000000" stroke="none" 
	d="
M288.633026,320.552795 
	C288.893951,320.070892 289.085541,320.047333 289.562073,319.981995 
	C289.604492,329.478729 289.362000,339.017212 288.819763,348.898621 
	C288.534576,339.831390 288.549164,330.421295 288.633026,320.552795 
z"/>
<path fill="#9A72E8" opacity="1.000000" stroke="none" 
	d="
M266.144531,359.303467 
	C271.862335,361.661682 277.647369,361.616852 283.586365,357.899658 
	C279.899200,362.930817 272.486023,363.700073 266.144531,359.303467 
z"/>
<path fill="#9A72E8" opacity="1.000000" stroke="none" 
	d="
M226.178314,316.762146 
	C228.284363,315.764191 230.784668,314.839874 233.666565,313.890411 
	C231.556305,314.855438 229.064438,315.845612 226.178314,316.762146 
z"/>
<path fill="#9A72E8" opacity="1.000000" stroke="none" 
	d="
M169.235001,308.134583 
	C171.293884,308.995117 173.511093,310.163849 175.918915,311.608032 
	C173.870789,310.736572 171.632065,309.589661 169.235001,308.134583 
z"/>
<path fill="#9A72E8" opacity="1.000000" stroke="none" 
	d="
M234.824402,313.743927 
	C236.083969,312.826447 237.738876,311.957581 239.748276,311.056641 
	C238.475098,311.947205 236.847427,312.869873 234.824402,313.743927 
z"/>
<path fill="#9A72E8" opacity="1.000000" stroke="none" 
	d="
M159.178680,300.179993 
	C160.089890,300.615326 161.046936,301.394501 162.136276,302.457275 
	C161.253891,302.001862 160.239212,301.262878 159.178680,300.179993 
z"/>
<path fill="#9A72E8" opacity="1.000000" stroke="none" 
	d="
M145.091705,281.130615 
	C145.820084,281.857300 146.541428,282.949005 147.344009,284.361328 
	C146.645050,283.619843 145.864868,282.557739 145.091705,281.130615 
z"/>
<path fill="#9A72E8" opacity="1.000000" stroke="none" 
	d="
M287.243225,353.763977 
	C287.344208,352.631195 287.751556,351.283386 288.376587,349.655579 
	C288.246033,350.766693 287.897797,352.157806 287.243225,353.763977 
z"/>
<path fill="#9A72E8" opacity="1.000000" stroke="none" 
	d="
M240.944412,310.847717 
	C241.665176,310.120026 242.767487,309.412140 244.172729,308.588562 
	C243.425751,309.271057 242.375854,310.069305 240.944412,310.847717 
z"/>
<path fill="#9A72E8" opacity="1.000000" stroke="none" 
	d="
M164.483795,304.863525 
	C165.486771,305.180542 166.555374,305.841064 167.813416,306.756744 
	C166.851700,306.410278 165.700562,305.808624 164.483795,304.863525 
z"/>
<path fill="#9A72E8" opacity="1.000000" stroke="none" 
	d="
M150.038910,289.302917 
	C150.694138,289.747070 151.360245,290.537933 152.126694,291.627380 
	C151.501297,291.167206 150.775558,290.408447 150.038910,289.302917 
z"/>
<path fill="#9A72E8" opacity="1.000000" stroke="none" 
	d="
M261.111267,354.226990 
	C261.752319,354.668945 262.386047,355.457184 263.116669,356.538879 
	C262.510345,356.079346 261.807159,355.326324 261.111267,354.226990 
z"/>
<path fill="#9A72E8" opacity="1.000000" stroke="none" 
	d="
M263.249298,357.119568 
	C263.839630,357.272552 264.512329,357.756805 265.343628,358.515289 
	C264.778717,358.343323 264.055206,357.897095 263.249298,357.119568 
z"/>
<path fill="#9A72E8" opacity="1.000000" stroke="none" 
	d="
M244.893616,308.446106 
	C245.172577,307.946259 245.761276,307.448395 246.641403,306.898315 
	C246.356339,307.380096 245.779861,307.914093 244.893616,308.446106 
z"/>
<path fill="#9A72E8" opacity="1.000000" stroke="none" 
	d="
M247.171951,306.844971 
	C247.293594,306.498596 247.716888,306.106995 248.430847,305.642853 
	C248.305542,305.980103 247.889572,306.389954 247.171951,306.844971 
z"/>
<path fill="#9A72E8" opacity="1.000000" stroke="none" 
	d="
M286.062073,355.755310 
	C286.055908,355.404572 286.289124,354.871002 286.739563,354.138367 
	C286.738342,354.483673 286.519897,355.028107 286.062073,355.755310 
z"/>
<path fill="#9A72E8" opacity="1.000000" stroke="none" 
	d="
M148.139023,286.183167 
	C148.462738,286.343323 148.827560,286.804901 149.240967,287.568665 
	C148.919769,287.408722 148.549942,286.946655 148.139023,286.183167 
z"/>
<path fill="#9A72E8" opacity="1.000000" stroke="none" 
	d="
M176.238159,312.087372 
	C176.612076,312.040436 177.181656,312.224365 177.925690,312.659180 
	C177.544693,312.712799 176.989258,312.515533 176.238159,312.087372 
z"/>
<path fill="#9A72E8" opacity="1.000000" stroke="none" 
	d="
M153.088287,293.200623 
	C153.427841,293.302185 153.833832,293.696442 154.347809,294.357544 
	C154.022125,294.247375 153.588440,293.870361 153.088287,293.200623 
z"/>
<path fill="#9A72E8" opacity="1.000000" stroke="none" 
	d="
M252.195374,302.912720 
	C252.285187,302.566498 252.667725,302.149933 253.318634,301.624390 
	C253.220718,301.957703 252.854416,302.400055 252.195374,302.912720 
z"/>
<path fill="#9A72E8" opacity="1.000000" stroke="none" 
	d="
M168.142578,307.200165 
	C168.301987,307.145386 168.617996,307.287720 169.043716,307.674438 
	C168.868668,307.744995 168.583939,307.571136 168.142578,307.200165 
z"/>
<path fill="#9A72E8" opacity="1.000000" stroke="none" 
	d="
M248.911987,305.611969 
	C248.892197,305.427795 249.126373,305.163940 249.626343,304.838440 
	C249.650055,305.028625 249.407990,305.280457 248.911987,305.611969 
z"/>
<path fill="#9A72E8" opacity="1.000000" stroke="none" 
	d="
M250.034485,304.766052 
	C250.008926,304.599060 250.224335,304.311615 250.696518,303.924133 
	C250.727341,304.097931 250.501404,304.371765 250.034485,304.766052 
z"/>
<path fill="#9A72E8" opacity="1.000000" stroke="none" 
	d="
M163.343597,303.906158 
	C163.525208,303.828247 163.831085,303.980225 164.261795,304.361572 
	C164.080383,304.439301 163.774124,304.287689 163.343597,303.906158 
z"/>
<path fill="#9A72E8" opacity="1.000000" stroke="none" 
	d="
M162.299683,302.958130 
	C162.479202,302.905212 162.786880,303.087341 163.202362,303.522217 
	C163.016052,303.581055 162.721939,303.387146 162.299683,302.958130 
z"/>
<path fill="#9A72E8" opacity="1.000000" stroke="none" 
	d="
M253.831604,301.482971 
	C253.785675,301.288239 253.990036,301.029968 254.433136,300.688873 
	C254.475220,300.877197 254.278549,301.148315 253.831604,301.482971 
z"/>
<path fill="#9A72E8" opacity="1.000000" stroke="none" 
	d="
M149.261353,288.000061 
	C149.439514,287.988495 149.700531,288.222656 150.003845,288.724548 
	C149.812134,288.743469 149.578171,288.494629 149.261353,288.000061 
z"/>
<path fill="#9A72E8" opacity="1.000000" stroke="none" 
	d="
M147.384689,284.937286 
	C147.566299,284.929443 147.810760,285.175018 148.096313,285.686829 
	C147.907440,285.698975 147.677490,285.444824 147.384689,284.937286 
z"/>
<path fill="#9A72E8" opacity="1.000000" stroke="none" 
	d="
M254.873566,300.582886 
	C254.826096,300.396027 255.025253,300.114410 255.471725,299.738037 
	C255.519440,299.924896 255.319824,300.206512 254.873566,300.582886 
z"/>
<path fill="#9A72E8" opacity="1.000000" stroke="none" 
	d="
M158.209015,299.066162 
	C158.379898,299.028381 158.683090,299.214630 159.071564,299.662262 
	C158.885025,299.712494 158.613190,299.501343 158.209015,299.066162 
z"/>
<path fill="#9A72E8" opacity="1.000000" stroke="none" 
	d="
M157.195557,297.990417 
	C157.371567,297.962769 157.675217,298.176758 158.065704,298.661926 
	C157.876083,298.699402 157.599655,298.465729 157.195557,297.990417 
z"/>
<path fill="#9A72E8" opacity="1.000000" stroke="none" 
	d="
M285.018250,356.806885 
	C284.988434,356.635437 285.194702,356.332855 285.665405,355.935852 
	C285.704651,356.119537 285.479523,356.397614 285.018250,356.806885 
z"/>
<path fill="#9A72E8" opacity="1.000000" stroke="none" 
	d="
M155.280411,295.992889 
	C155.451065,295.965576 155.746521,296.185608 156.148834,296.667236 
	C155.972214,296.699341 155.688705,296.469757 155.280411,295.992889 
z"/>
<path fill="#9A72E8" opacity="1.000000" stroke="none" 
	d="
M154.476807,294.873199 
	C154.655960,294.859802 154.899490,295.099426 155.206238,295.594482 
	C155.026703,295.608673 154.783951,295.367462 154.476807,294.873199 
z"/>
<path fill="#8C54FD" opacity="1.000000" stroke="none" 
	d="
M237.250885,196.678711 
	C242.563339,201.019363 247.555344,205.176361 252.547333,209.333359 
	C252.243988,209.819183 251.940643,210.305023 251.637299,210.790863 
	C249.063293,211.076874 246.454147,211.184830 243.922318,211.684570 
	C237.964462,212.860550 234.257111,217.295761 234.057968,223.193878 
	C233.862198,228.991699 237.357635,233.901749 243.408829,235.005264 
	C248.431885,235.921280 253.633286,235.859314 258.755310,236.235458 
	C264.575958,263.311371 250.940903,286.944794 222.958481,292.736389 
	C190.648956,299.423553 163.043671,275.235199 163.723709,241.680588 
	C164.245071,215.956528 179.389999,196.297089 202.608521,191.479385 
	C214.603775,188.990433 226.114349,190.549820 237.250885,196.678711 
z"/>
</svg>